<svg width="220" height="52" viewBox="0 0 220 52" fill="none" xmlns="http://www.w3.org/2000/svg">
<path d="M26.1 0C11.7 0 0 11.6 0 26C0 40.4 11.7 52 26.1 52C40.5 52 52.2 40.4 52.2 26C52.2 11.6 40.5 0 26.1 0ZM38.2 17.7C37.8 21.8 36.1 31.8 35.2 36.4C34.8 38.3 34.1 39 33.4 39.1C31.9 39.2 30.7 38.1 29.3 37.1L23.5 33.2C20.9 31.5 22.6 30.6 24.1 29.1C24.5 28.7 31.2 22.7 31.3 22.1C31.3 22 31.3 21.8 31.2 21.6C31 21.5 30.8 21.5 30.7 21.5C30.5 21.6 26.8 24 19.7 28.7C18.7 29.4 17.7 29.8 16.9 29.7C16 29.7 14.2 29.2 12.8 28.7C11.2 28.2 9.9 27.9 10 27C10.1 26.5 10.7 26.1 11.9 25.6L27.1 19.1C34.3 16.1 35.8 15.6 36.8 15.6C37 15.6 37.5 15.7 37.8 15.9C38.1 16.1 38.1 16.4 38.2 16.6C38.2 16.9 38.2 17.3 38.2 17.7Z" fill="white" fill-opacity="0.28"/>
<path d="M60.7 15.8H68.9999V39H72.9999V15.8H81.3999V12.3H60.7V15.8Z" fill="white" fill-opacity="0.28"/>
<path d="M85.5999 27.6C85.5999 27.5 85.5999 27.4 85.5999 27.2H83.8999V30.1H85.5999C85.5999 30 85.5999 29.9 85.5999 29.8V27.6Z" fill="white" fill-opacity="0.28"/>
<path d="M97.1001 21C96.3001 20.2 95.3001 19.6 94.2001 19.2C93.1001 18.8 92.0001 18.6 90.9001 18.6C89.0001 18.6 87.4001 19 86.0001 19.9C84.6001 20.8 83.5001 22 82.8001 23.6C82.0001 25.2 81.6001 27 81.6001 29C81.6001 31.1 82.0001 32.9 82.8001 34.4C83.6001 35.9 84.7001 37.1 86.1001 38C87.5001 38.8 89.2001 39.3 91.2001 39.3C92.7001 39.3 94.0001 39.1 95.1001 38.6C96.2001 38.1 97.2001 37.5 98.0001 36.7C98.8001 35.9 99.3001 34.9 99.6001 33.8L95.9001 33.1C95.7001 33.7 95.3001 34.3 94.9001 34.7C94.5001 35.1 93.9001 35.4 93.3001 35.7C92.7001 35.9 92.0001 36 91.3001 36C90.2001 36 89.2001 35.8 88.3001 35.3C87.4001 34.8 86.8001 34.1 86.3001 33.1C85.9001 32.2 85.6001 31.2 85.6001 30H83.9001V27.1H85.6001C85.6001 26.2 85.9001 25.4 86.2001 24.7C86.6001 23.8 87.3001 23.1 88.1001 22.6C88.9001 22.1 89.9001 21.8 91.0001 21.8C92.0001 21.8 92.9001 22 93.6001 22.5C94.4001 23 94.9001 23.6 95.4001 24.4C95.8001 25.2 96.0001 26.1 96.0001 27.1H85.6001C85.6001 27.2 85.6001 27.3 85.6001 27.5V29.8C85.6001 29.9 85.6001 30 85.6001 30.1H99.9001V28.7C99.9001 26.9 99.7001 25.3 99.2001 24.1C98.6001 22.9 98.0001 21.8 97.1001 21Z" fill="white" fill-opacity="0.28"/>
<path d="M107.9 12.3H104V39H107.9V12.3Z" fill="white" fill-opacity="0.28"/>
<path d="M116.1 27.6C116.1 27.5 116.1 27.4 116.1 27.2H114.4V30.1H116.1C116.1 30 116.1 29.9 116.1 29.8V27.6Z" fill="white" fill-opacity="0.28"/>
<path d="M127.6 21C126.8 20.2 125.8 19.6 124.7 19.2C123.6 18.8 122.5 18.6 121.4 18.6C119.5 18.6 117.9 19 116.5 19.9C115.1 20.8 114 22 113.3 23.6C112.5 25.2 112.1 27 112.1 29C112.1 31.1 112.5 32.9 113.3 34.4C114.1 35.9 115.2 37.1 116.6 38C118 38.8 119.7 39.3 121.7 39.3C123.2 39.3 124.5 39.1 125.6 38.6C126.7 38.1 127.7 37.5 128.5 36.7C129.3 35.9 129.8 34.9 130.1 33.8L126.4 33.1C126.2 33.7 125.8 34.3 125.4 34.7C125 35.1 124.4 35.4 123.8 35.7C123.2 35.9 122.5 36 121.8 36C120.7 36 119.7 35.8 118.8 35.3C117.9 34.8 117.3 34.1 116.8 33.1C116.4 32.2 116.1 31.2 116.1 30H114.4V27.1H116.1C116.1 26.2 116.4 25.4 116.7 24.7C117.1 23.8 117.8 23.1 118.6 22.6C119.4 22.1 120.4 21.8 121.5 21.8C122.5 21.8 123.4 22 124.1 22.5C124.9 23 125.4 23.6 125.9 24.4C126.3 25.2 126.5 26.1 126.5 27.1H116.1C116.1 27.2 116.1 27.3 116.1 27.5V29.8C116.1 29.9 116.1 30 116.1 30.1H130.4V28.7C130.4 26.9 130.2 25.3 129.7 24.1C129.1 22.9 128.5 21.8 127.6 21Z" fill="white" fill-opacity="0.28"/>
<path d="M148.2 22.2H147.9C147.7 21.8 147.3 21.3 146.9 20.8C146.5 20.3 145.9 19.8 145.1 19.4C144.3 19 143.3 18.8 142.1 18.8C140.5 18.8 139 19.2 137.8 20C136.5 20.8 135.5 22 134.8 23.5C134.1 25 133.7 26.8 133.7 29C133.7 31.1 134.1 32.9 134.8 34.4C135.5 35.9 136.5 37 137.8 37.7C139.1 38.4 140.5 38.8 142.1 38.8C143.3 38.8 144.3 38.6 145.1 38.2C145.9 37.8 146.5 37.4 146.9 36.8C147.3 36.3 147.7 35.8 147.9 35.4H148.1V39.3C148.1 40.9 147.6 42 146.6 42.7C145.6 43.4 144.4 43.8 142.9 43.8C141.8 43.8 140.9 43.6 140.2 43.3C139.5 43 139 42.6 138.6 42.2C138.2 41.8 137.9 41.4 137.7 41L134.3 42.4C134.7 43.2 135.2 44 135.9 44.7C136.6 45.4 137.6 45.9 138.7 46.4C139.9 46.8 141.2 47 142.8 47C144.5 47 146 46.7 147.4 46.2C148.8 45.7 149.9 44.9 150.7 43.7C151.5 42.6 151.9 41.2 151.9 39.5V19H148.1V22.2H148.2ZM147.5 32.4C147.1 33.4 146.5 34.1 145.7 34.7C144.9 35.2 144 35.5 142.9 35.5C141.7 35.5 140.8 35.2 140 34.7C139.2 34.1 138.6 33.4 138.2 32.4C137.8 31.4 137.6 30.3 137.6 28.9C137.6 27.6 137.8 26.5 138.2 25.4C138.6 24.4 139.2 23.5 140 22.9C140.8 22.3 141.8 22 142.9 22C144 22 145 22.3 145.8 22.9C146.6 23.5 147.2 24.3 147.6 25.3C148 26.3 148.2 27.5 148.2 28.9C148.1 30.2 147.9 31.4 147.5 32.4Z" fill="white" fill-opacity="0.28"/>
<path d="M166.2 18.7C165 18.7 164 19 163 19.6C162.1 20.2 161.4 21.1 161.1 22.1H160.9V19H157.1V39H161V26.8C161 25.9 161.2 25.2 161.6 24.5C162 23.8 162.6 23.3 163.3 22.9C164 22.5 164.8 22.3 165.8 22.3C166.2 22.3 166.6 22.3 167 22.4C167.4 22.5 167.7 22.5 167.8 22.5V18.8C167.6 18.8 167.3 18.8 167 18.7C166.7 18.7 166.4 18.7 166.2 18.7Z" fill="white" fill-opacity="0.28"/>
<path d="M183.9 20C183.1 19.5 182.3 19.2 181.4 19C180.5 18.8 179.7 18.7 178.9 18.7C177.7 18.7 176.5 18.9 175.4 19.2C174.3 19.5 173.3 20.1 172.5 20.8C171.7 21.5 171 22.5 170.6 23.7L174.3 24.5C174.6 23.8 175.1 23.2 175.9 22.6C176.7 22 177.7 21.7 179 21.7C180.3 21.7 181.2 22 181.8 22.6C182.4 23.2 182.8 24.1 182.8 25.2V25.3C182.8 25.8 182.6 26.1 182.3 26.3C182 26.5 181.4 26.7 180.7 26.8C180 26.9 179 27 177.8 27.1C176.8 27.2 175.9 27.4 175 27.6C174.1 27.8 173.3 28.1 172.5 28.6C171.8 29 171.2 29.6 170.7 30.3C170.3 31 170 32 170 33.1C170 34.4 170.3 35.4999 170.9 36.3999C171.5 37.2999 172.3 38 173.3 38.5C174.3 39 175.5 39.2 176.8 39.2C177.9 39.2 178.9 39 179.7 38.7C180.5 38.4 181.1 38 181.6 37.5C182.1 37 182.5 36.5 182.7 36H182.9V38.7H186.7V25.3999C186.7 23.8999 186.4 22.8 185.9 21.8C185.4 21.2 184.7 20.5 183.9 20ZM182.7 31.8C182.7 32.6 182.5 33.3 182.1 34C181.7 34.7 181.1 35.2 180.3 35.7C179.5 36.1 178.6 36.3 177.5 36.3C176.4 36.3 175.5 36.1 174.8 35.6C174.1 35.1 173.7 34.3999 173.7 33.3999C173.7 32.6999 173.9 32.1 174.2 31.7C174.6 31.3 175.1 30.9 175.7 30.7C176.3 30.5 177 30.3 177.8 30.2C178.1 30.2 178.5 30.1 179 30C179.5 29.9 180 29.9 180.5 29.8C181 29.7 181.5 29.6 181.8 29.5C182.2 29.4 182.5 29.2 182.6 29.1V31.8H182.7Z" fill="white" fill-opacity="0.28"/>
<path d="M212.8 18.7C211.4 18.7 210.1 19 209.1 19.7C208.1 20.3 207.3 21.2 206.8 22.3H206.6C206.2 21.2 205.5 20.3 204.6 19.7C203.7 19.1 202.6 18.8 201.2 18.8C199.9 18.8 198.7 19.1 197.8 19.7C196.8 20.3 196.2 21.2 195.7 22.3H195.5V19H191.7V39H195.6V26.7C195.6 25.8 195.8 25 196.2 24.3C196.6 23.6 197.1 23.1 197.7 22.7C198.3 22.3 199 22.1 199.8 22.1C200.9 22.1 201.8 22.4 202.5 23.1C203.2 23.8 203.5 24.6 203.5 25.7V39H207.4V26.2C207.4 25 207.8 24 208.5 23.2C209.2 22.4 210.2 22 211.5 22C212.5 22 213.4 22.3 214.2 22.9C214.9 23.5 215.3 24.5 215.3 25.8V39H219.2V25.6C219.2 23.3 218.6 21.6 217.5 20.5C216.1 19.3 214.6 18.7 212.8 18.7Z" fill="white" fill-opacity="0.28"/>
</svg>
