<svg width="118" height="40" viewBox="0 0 118 40" fill="none" xmlns="http://www.w3.org/2000/svg">
<path d="M26.5 38.8C27 38.6 27.6 38.7 28.1 38.5C28.5 38.3 28.8 38.3 29.2 38.2C29.3 38.2 29.4 38.2 29.5 38.2C29.6 38.2 29.7 38.2 29.8 38.1C30.1 37.9 30.5 37.8 30.8 37.6C31.3 37.4 31.8 37.1 32.3 36.9C32.5 36.8 32.7 36.7 32.8 36.6C33.2 36.3 33.5 36.1 33.9 35.8C34.6 35.3 35.2 34.7 35.8 34C36.1 33.6 36.5 33.1 36.8 32.7C37.1 32.3 37.3 32 37.6 31.6C37.8 31.3 38 31 38.1 30.6C38.2 30.3 38.4 30.1 38.5 29.8C38.7 29.4 38.8 29 38.9 28.6C39.2 27.8 39.4 27.1 39.5 26.2C39.6 25.3 39.7 24.5 39.7 23.6C39.7 20.9 39.7 18.2 39.7 15.5C39.7 14.8 39.6 14.2 39.5 13.5C39.5 13.2 39.5 12.9 39.4 12.6C39.3 12 39.1 11.4 39 10.8C38.9 10.5 38.8 10.2 38.7 9.9C38.6 9.6 38.4 9.2 38.2 8.9C38 8.4 37.8 7.9 37.5 7.4C37 6.7 36.5 6 36 5.4C35.5 4.7 34.9 4.1 34.2 3.6C33.8 3.3 33.3 2.9 32.9 2.6C32.5 2.3 32 2 31.5 1.8C31.2 1.6 30.9 1.5 30.7 1.4C30.3 1.2 30 1 29.6 0.9C29.1 0.7 28.6 0.6 28.1 0.5C28 0.5 27.9 0.4 27.8 0.4C27.7 0.4 27.5 0.3 27.4 0.3C27.1 0.3 26.8 0.3 26.6 0.2C26 0.0999998 25.5 0 24.9 0C24.8 0 24.7 0 24.7 0C16.6 0 8.4 0 0.300003 0C0.200003 0 0.1 0 0 0C0 13 0 26 0 39C0.1 39 0.199994 39 0.399994 39C7.79999 39 15.2 39 22.7 39C23.9 39 25.2 39.1 26.5 38.8ZM10.2 29.2C10 29.2 9.89999 29.1 9.89999 28.9C9.89999 28.8 9.89999 28.7 9.89999 28.6C9.89999 25.6 9.89999 22.5 9.89999 19.5C9.89999 16.5 9.89999 13.4 9.89999 10.4C9.89999 9.8 9.9 9.8 10.5 9.8C14.9 9.8 19.3 9.8 23.7 9.8C24 9.8 24.3 9.8 24.6 9.8C25.3 9.8 25.9 10 26.5 10.3C26.9 10.5 27.3 10.7 27.7 11C28.2 11.4 28.6 11.8 28.9 12.4C29 12.7 29.2 13 29.4 13.3C29.4 13.3 29.4 13.4 29.5 13.4C29.6 14 29.8 14.7 29.8 15.3C29.8 18.1 29.8 21 29.8 23.8C29.8 24.5 29.7 25.1 29.5 25.7C29.1 26.8 28.5 27.7 27.5 28.3C26.5 28.9 25.4 29.3 24.2 29.3C19.6 29.3 15.1 29.3 10.5 29.3C10.4 29.2 10.3 29.2 10.2 29.2Z" fill="white" fill-opacity="0.28"/>
<path d="M112.1 17.7C106.9 17.7 101.7 17.7 96.5001 17.7C96.3001 17.7 96.2001 17.7 96.0001 17.7C95.9001 17.7 95.8 17.6 95.8 17.5C95.8 17.4 95.8 17.2 95.8 17.1C95.8 14.9 95.8 12.8 95.8 10.6C95.8 9.89995 95.8001 9.89995 96.5001 9.89995C103.6 9.89995 110.7 9.89995 117.7 9.89995C117.8 9.89995 117.9 9.89995 118 9.89995C118 6.59995 118 3.39995 118 0.199951C117.9 0.199951 117.8 0.199951 117.7 0.199951C107.2 0.199951 96.6001 0.199951 86.1001 0.199951C85.9001 0.199951 85.8 0.299951 85.8 0.499951C85.8 13.2 85.8 25.8 85.8 38.5C85.8 38.6 85.8001 38.8 85.9001 38.9C85.9001 39.1 86.0001 39.0999 86.2001 39.0999C89.1001 39.0999 92.1001 39.0999 95.0001 39.0999C95.7001 39.0999 95.7001 39.1 95.7001 38.4C95.7001 35 95.7001 31.6999 95.7001 28.2999C95.7001 27.5999 95.7 27.5999 96.3 27.5999C101.5 27.5999 106.8 27.5999 112 27.5999C112.5 27.5999 112.5 27.5999 112.5 27.0999C112.5 24.1999 112.5 21.1999 112.5 18.2999C112.6 17.6999 112.6 17.7 112.1 17.7Z" fill="white" fill-opacity="0.28"/>
<path d="M66.4 38.5C66.4 38.4 66.4 38.3 66.4 38.2C66.4 35.4 66.4 32.5 66.4 29.7C66.4 23.3 66.4 16.8 66.4 10.4C66.4 9.79997 66.4 9.79997 67 9.79997C71.3 9.79997 75.5 9.79997 79.8 9.79997C80.4 9.79997 80.4 9.79998 80.4 9.19998C80.4 9.09998 80.4 8.99998 80.4 8.99998C80.4 6.19998 80.4 3.29998 80.4 0.499975C80.4 0.399975 80.4 0.299976 80.4 0.0999756C67.8 0.0999756 55.2 0.0999756 42.5 0.0999756C42.5 0.199976 42.5 0.399975 42.5 0.499975C42.5 3.39998 42.5 6.29998 42.5 9.19998C42.5 9.89998 42.5 9.89997 43.1 9.89997C47.3 9.89997 51.5 9.89997 55.7 9.89997C56.5 9.89997 56.5 9.89998 56.5 10.7C56.5 19.9 56.5 29.1 56.5 38.2C56.5 38.3 56.5 38.4 56.5 38.6C56.5 38.9 56.7 39.1 57 39.1C59.9 39.1 62.9 39.1 65.8 39.1C66.2 39 66.3 38.8 66.4 38.5Z" fill="white" fill-opacity="0.28"/>
</svg>
