<svg width="224" height="39" viewBox="0 0 224 39" fill="none" xmlns="http://www.w3.org/2000/svg">
<path d="M20.5 0H18.9C10 0 5.49999 -3.09944e-06 2.79999 2.7C-1.21593e-05 5.4 0 9.8 0 18.7V20.3C0 29.1 -1.21593e-05 33.5 2.79999 36.3C5.59999 39 10 39 18.9 39H20.5C29.4 39 33.9 39 36.6 36.3C39.4 33.6 39.4 29.2 39.4 20.3V18.7C39.4 9.9 39.4 5.5 36.6 2.7C33.9 -3.09944e-06 29.5 0 20.5 0ZM32.1 27.6H29.2C28.1 27.6 27.8 26.7 25.8 24.8C24.1 23.2 23.4 23 22.9 23C22.3 23 22.1 23.2 22.1 24V26.5C22.1 27.2 21.9 27.6 20 27.6C17 27.6 13.6 25.8 11.2 22.4C7.60001 17.5 6.70001 13.7 6.70001 13C6.70001 12.6 6.90001 12.2 7.70001 12.2H10.6C11.3 12.2 11.6 12.5 11.9 13.3C13.3 17.4 15.7 20.9 16.7 20.9C17.1 20.9 17.2 20.7 17.2 19.8V15.6C17.1 13.7 16.1 13.5 16.1 12.8C16.1 12.5 16.4 12.1 16.8 12.1H21.3C21.9 12.1 22.1 12.4 22.1 13.1V18.7C22.1 19.3 22.4 19.5 22.5 19.5C22.9 19.5 23.2 19.3 23.8 18.6C25.9 16.3 27.3 12.8 27.3 12.8C27.5 12.4 27.8 12 28.6 12H31.5C32.4 12 32.6 12.4 32.4 13C32 14.7 28.5 19.5 28.5 19.5C28.2 20 28.1 20.2 28.5 20.8C28.8 21.2 29.8 22.1 30.5 22.8C31.7 24.2 32.7 25.3 32.9 26.1C33.3 27.2 32.9 27.6 32.1 27.6Z" fill="white" fill-opacity="0.28"/>
<path d="M224 19.3C224 14.1 220.1 10.2 214.6 10.2C209.1 10.2 205.2 14.1 205.2 19.5C205.2 24.9 209.1 28.8 214.6 28.8C218.4 28.8 221.9 27 223.3 23.6L219.5 23C218.6 24.3 217 25.2 214.8 25.2C211.7 25.2 209.7 23.3 209.3 20.6H223.8C224 20.2 224 19.8 224 19.3ZM209.6 17.5C210.3 15.2 212.1 13.7 214.6 13.7C217.1 13.7 219 15.3 219.6 17.5H209.6Z" fill="white" fill-opacity="0.28"/>
<path d="M67.3 19.2C68.9 18.5 69.9001 17.3 69.9001 15.4C69.9001 12.6 67.3001 10.6 63.5001 10.6H54.8V28.5H63.8C67.7 28.5 70.4001 26.4 70.4001 23.6C70.5001 21.3 69.1 19.7 67.3 19.2ZM58.9001 13.8H63.6C65 13.8 66.0001 14.6 66.0001 15.8C66.0001 16.9 65 17.7 63.6 17.7H58.9001V13.8ZM63.9001 25.2H58.9001V20.8H63.9001C65.5001 20.8 66.5001 21.7 66.5001 23C66.5001 24.3 65.5001 25.2 63.9001 25.2Z" fill="white" fill-opacity="0.28"/>
<path d="M100.8 10.2C95.1001 10.2 91.1001 14.1 91.1001 19.5C91.1001 24.9 95.1001 28.8 100.8 28.8C106.5 28.8 110.5 25 110.5 19.5C110.5 14.1 106.5 10.2 100.8 10.2ZM100.8 25.2C97.5001 25.2 95.3001 22.9 95.3001 19.5C95.3001 16.1 97.5001 13.8 100.8 13.8C104.1 13.8 106.3 16.1 106.3 19.5C106.3 22.9 104.1 25.2 100.8 25.2Z" fill="white" fill-opacity="0.28"/>
<path d="M126.1 17.6H118V10.6H114V28.4H118V21.2H126.1V28.4H130.1V10.6H126.1V17.6Z" fill="white" fill-opacity="0.28"/>
<path d="M89.9 10.6H85.2L79.0999 17.5H78.2V10.6H74.2V28.4H78.2V21.3H79.0999L85.4 28.4H90.5999L82.2999 19.2L89.9 10.6Z" fill="white" fill-opacity="0.28"/>
<path d="M132.9 14.2H139.1V28.4H143.1V14.2H149.4V10.6H132.9V14.2Z" fill="white" fill-opacity="0.28"/>
<path d="M186.4 10.6H181.7L175.6 17.5H174.6V10.6H170.7V28.4H174.6V21.3H175.6L181.9 28.4H187.1L178.8 19.2L186.4 10.6Z" fill="white" fill-opacity="0.28"/>
<path d="M187.7 14.2H193.9V28.4H197.9V14.2H204.2V10.6H187.7V14.2Z" fill="white" fill-opacity="0.28"/>
<path d="M158.8 10.2C155.3 10.2 152.2 12 151.3 15.1L155 15.7C155.6 14.6 156.8 13.6 158.6 13.6C160.8 13.6 162.1 15.1 162.3 17.5H158.4C153.1 17.5 150.4 19.8 150.4 23.1C150.4 26.4 153 28.8 156.7 28.8C159.7 28.8 161.6 27.1 162.5 25.6L163.3 28.3999H166.3V18.3999C166.3 13.1999 163.5 10.2 158.8 10.2ZM157.7 25.3999C155.8 25.3999 154.5 24.3999 154.5 22.8999C154.5 21.4999 155.5 20.6 158.6 20.6H162.4C162.3 23.5 160.4 25.3999 157.7 25.3999Z" fill="white" fill-opacity="0.28"/>
</svg>
