<svg width="143" height="32" viewBox="0 0 143 32" fill="none" xmlns="http://www.w3.org/2000/svg">
<path d="M142.4 26.2C141.4 26.2 140.5 26.2 139.5 26.2C139 26.2 138.9 26.2 138.9 25.6C138.8 21.6 138.7 17.6 138.6 13.7C138.6 13.7 138.6 13.7 138.7 13.7C138.7 9.69995 138.7 5.79996 138.7 1.79996C138.7 1.29996 138.6 1.19995 138.1 1.19995C135.2 1.19995 132.2 1.19995 129.3 1.19995C129 1.19995 128.7 1.19995 128.5 1.19995C128.2 1.19995 128 1.29995 128 1.69995C128 2.99995 128 4.29995 128 5.59995C128 6.09995 128.2 6.19995 128.6 6.19995C129.8 6.19995 131.1 6.19995 132.3 6.19995C133.4 6.19995 133.3 6.29995 133.3 7.19995C133.3 10.9 133.3 14.5 133.3 18.2C133.3 20.2 132.7 22.1 131.5 23.7C130.2 25.4 128.5 26.6 126.4 27C124.4 27.3 122.6 27 121 25.6C119.9 24.6 119.4 23.2 119.2 21.8C119 20.7 119 19.4999 118.9 18.3999C118.8 16.7999 118.9 15.1 118.9 13.5C118.9 9.59995 118.9 5.59995 118.9 1.69995C118.9 1.29995 118.8 1.19995 118.3 1.19995C116.4 1.19995 114.5 1.19995 112.6 1.19995C111.5 1.19995 110.5 1.19995 109.4 1.19995C109.1 1.19995 108.8 1.19995 108.8 1.59995C108.8 2.99995 108.8 4.29995 108.8 5.69995C108.8 6.09995 109 6.29996 109.4 6.29996C110.5 6.29996 111.6 6.29996 112.7 6.29996C113.4 6.29996 113.5 6.39995 113.5 6.99995C113.5 11.4 113.5 15.7 113.5 20.1C113.5 21.2 113.6 22.2999 113.8 23.3999C114.1 25.3999 115 27.2 116.4 28.7C117.4 29.9 118.7 30.7 120.2 31.2C121 31.5 121.9 31.7 122.8 31.8C124.4 32.1 126 31.9 127.5 31.5C128.6 31.2 129.7 30.5999 130.6 29.8999C131.7 28.9999 132.6 28 133.3 26.8C133.4 26.7 133.6 26.6 133.7 26.5C133.8 26.6 133.9 26.7999 133.9 26.8999C134.1 28.0999 134.2 29.3 134.4 30.5C134.5 30.9 134.7 31.1 135.1 31.1C137.5 31.1 139.9 31.1 142.3 31.1C142.6 31.1 142.8 30.9 142.8 30.6C142.8 29.3 142.8 28.1 142.8 26.8C143 26.3 142.9 26.2 142.4 26.2Z" fill="white" fill-opacity="0.28"/>
<path d="M63.5999 24.9C62.5999 24.1 61.5999 23.4001 60.5999 22.6001C60.2999 22.4001 60.0999 22.4001 59.8999 22.7001C59.3999 23.2001 58.8999 23.8001 58.2999 24.2001C56.7999 25.4001 55.0999 26.1 53.1999 26.4C50.9999 26.8 48.7999 26.4001 46.8999 25.5001C45.3999 24.8001 44.0999 23.6001 43.0999 22.2001C41.9999 20.5001 41.2999 18.7001 41.1999 16.7001C41.0999 15.1001 41.2999 13.5001 41.7999 12.0001C42.0999 11.1001 42.5999 10.2001 43.0999 9.30006C43.8999 8.10006 44.9999 7.10006 46.2999 6.30006C47.1999 5.70006 48.1999 5.30005 49.2999 5.10005C51.0999 4.70005 52.8999 4.70005 54.6999 5.10005C55.6999 5.30005 56.5999 5.80005 57.5999 6.20005C57.9999 6.40005 58.1999 6.70005 58.1999 7.20005C58.1999 8.50005 58.1999 9.90005 58.1999 11.2C58.1999 11.5 58.2999 11.7 58.6999 11.7C60.0999 11.7 61.3999 11.7 62.7999 11.7C63.2999 11.7 63.3999 11.5001 63.3999 11.1001C63.3999 10.0001 63.3999 8.90005 63.3999 7.90005C63.3999 6.80005 63.3999 5.70005 63.3999 4.60005C63.3999 4.40005 63.2999 4.10005 63.0999 4.00005C62.0999 3.30005 61.1999 2.60005 60.1999 2.00005C59.2999 1.50005 58.1999 1.20005 57.1999 0.900054C55.6999 0.400054 54.1999 0.200051 52.6999 0.100051C49.5999 -0.099949 46.6999 0.500053 43.9999 2.00005C42.5999 2.70005 41.3999 3.60005 40.2999 4.70005C38.9999 6.00005 37.8999 7.60006 37.0999 9.30006C36.4999 10.6001 36.0999 11.9001 35.8999 13.3001C35.5999 15.6001 35.5999 17.8001 36.2999 20.0001C36.4999 20.7001 36.7999 21.4001 37.0999 22.1001C37.5999 23.3001 38.2999 24.4 39.0999 25.4C40.0999 26.7 41.1999 27.8001 42.5999 28.7001C43.5999 29.4001 44.6999 30.1001 45.8999 30.5001C46.8999 30.8001 47.8999 31.2 48.8999 31.4C50.7999 31.8 52.5999 31.8001 54.4999 31.5001C56.3999 31.2001 58.2999 30.6001 59.9999 29.7001C61.6999 28.7001 63.0999 27.4 64.3999 25.9C64.5999 25.7 64.6999 25.5001 64.3999 25.3001C63.7999 25.1001 63.6999 25 63.5999 24.9Z" fill="white" fill-opacity="0.28"/>
<path d="M33.2999 0.800049C30.8999 0.800049 28.3999 0.800049 25.9999 0.800049C25.6999 0.800049 25.3999 0.800043 25.2999 1.20004C25.0999 1.90004 24.7999 2.50004 24.5999 3.20004C24.2999 3.90004 24.0999 4.70005 23.7999 5.50005C23.4999 6.40005 23.2 7.30004 22.9 8.20004C22.6 9.00004 22.3999 9.80005 22.0999 10.5C21.6999 11.7 21.3 12.9001 20.9 14.1001C20.6 14.9001 20.3999 15.7 20.0999 16.4C19.6999 17.6 19.2999 18.8 18.7999 19.9C18.4999 20.8 18.1999 21.7 17.7999 22.7C17.6999 22.8 17.5999 22.9001 17.5999 23.1001C17.4999 23.0001 17.4 22.9 17.4 22.9C17 21.9 16.7 21 16.4 20C16.1 19.2 15.7999 18.3 15.4999 17.5C15.0999 16.4 14.6999 15.2001 14.2999 14.1001C13.9999 13.2001 13.7 12.4 13.4 11.5C13.1 10.7 12.7999 9.80005 12.4999 9.00005C12.1999 8.20005 12 7.50004 11.7 6.70004C11.4 5.80004 11.0999 4.90005 10.7999 4.00005C10.4999 3.20005 10.2 2.40005 9.89996 1.50005C9.79996 1.10005 9.49991 1.00005 9.09991 1.00005C6.39991 1.00005 3.69994 1.00005 1.09995 1.00005C0.399945 1.00005 0.199951 1.10005 0.199951 1.80005C0.199951 3.00005 0.199951 4.10005 0.199951 5.30005C0.199951 5.90005 0.299933 6.00005 0.899933 6.00005C2.29993 6.00005 3.59994 6.00005 4.99994 6.00005C5.29994 6.00005 5.59995 6.10005 5.69995 6.40005C5.89995 7.00005 6.19996 7.70005 6.39996 8.30005C6.89996 9.70005 7.49994 11.1 7.99994 12.6C8.39994 13.7 8.79995 14.8 9.19995 16C9.79995 17.7 10.4999 19.4 11.0999 21.2C11.5999 22.6 12.0999 24.1 12.5999 25.5C13.2999 27.3 13.9 29.2 14.7 31C14.8 31.2 15.0999 31.5 15.2999 31.5C16.5999 31.5 18 31.5 19.4 31.5C19.6 31.5 19.8 31.3 19.9 31.2C20.2 30.6 20.3999 30 20.5999 29.4C20.8999 28.6 21.1999 27.9001 21.4999 27.1001C21.7999 26.4001 21.9999 25.8001 22.2999 25.1001C22.6999 24.0001 23.0999 22.9 23.4999 21.8C23.8999 20.7 24.3999 19.6 24.7999 18.4C25.0999 17.7 25.2999 16.9 25.5999 16.2C25.9999 15.2 26.3999 14.1001 26.7999 13.1001C27.1999 12.0001 27.5999 11 27.9999 9.90005C28.3999 8.80005 28.8999 7.60005 29.2999 6.50005C29.4999 6.10005 29.6999 6.00005 30.0999 6.00005C31.3999 6.00005 32.6999 6.00005 33.9999 6.00005C34.3999 6.00005 34.5999 5.90005 34.5999 5.50005C34.5999 4.30005 34.5999 3.10005 34.5999 1.90005C34.1999 0.800047 34.1999 0.800049 33.2999 0.800049Z" fill="white" fill-opacity="0.28"/>
<path d="M102.5 1.09998C101.4 1.09998 100.2 1.09998 99.1001 1.09998C98.2001 1.09998 97.2001 1.19998 96.3001 1.39998C95.0001 1.69998 93.8001 2.19998 92.8001 2.89998C91.4001 3.79998 90.2001 4.99998 89.4001 6.39998C89.3001 6.49998 89.1001 6.59998 89.0001 6.79998C89.0001 6.79998 88.9001 6.79997 88.9001 6.69997C88.9001 6.49997 88.8001 6.39997 88.8001 6.19997C88.7001 4.69997 88.7001 3.19997 88.6001 1.69997C88.6001 1.29997 88.4001 1.19997 88.0001 1.19997C85.2001 1.19997 82.4001 1.19997 79.6001 1.19997C79.2001 1.19997 79.1001 1.29997 79.1001 1.69997C79.1001 2.89997 79.1001 3.99997 79.1001 5.19997C79.1001 5.59997 79.3001 5.69997 79.6001 5.69997C80.9001 5.69997 82.1001 5.69997 83.4001 5.69997C84.0001 5.69997 84.2001 5.79998 84.2001 6.39998C84.2001 7.19998 84.2001 7.99998 84.2001 8.79998C84.2001 14.3 84.2001 19.7 84.2001 25.2C84.2001 26.1 84.2001 26.1 83.3001 26.1C82.1001 26.1 80.9001 26.1 79.7001 26.1C79.2001 26.1 79.1001 26.2 79.1001 26.7C79.1001 28 79.1001 29.2 79.1001 30.5C79.1001 31 79.2001 31 79.7001 31C87.1001 31 94.5001 31 102 31C102.5 31 102.6 30.9 102.6 30.4C102.6 29.2 102.6 28.1 102.6 26.9C102.6 26.3 102.5 26.2 101.9 26.2C98.0001 26.2 94.1001 26.2 90.1001 26.2C89.5001 26.2 89.5001 26.2 89.5001 25.6C89.5001 21.9 89.5001 18.1 89.5001 14.4C89.5001 13.6 89.7001 12.8 89.9001 12C90.3001 10.7 91.0001 9.49998 91.9001 8.49998C93.4001 6.79998 95.3001 5.79997 97.6001 5.69997C98.1001 5.69997 98.2001 5.69997 98.2001 6.19997C98.2001 7.19997 98.2001 8.09998 98.2001 9.09998C98.2001 10.3 98.1001 10.2 99.3001 10.2C99.4001 10.2 99.6001 10.2 99.7001 10.2C100.7 10.2 101.8 10.2 102.8 10.2C103.3 10.2 103.4 10.1 103.4 9.69997C103.4 7.09997 103.4 4.39997 103.4 1.69997C103.2 1.19997 103.1 1.09998 102.5 1.09998Z" fill="white" fill-opacity="0.28"/>
<path d="M73.1 26.1C71.7 26.1 70.3 26.1 68.8 26.1C68.5 26.1 68.3 26.3 68.3 26.6C68.3 28 68.3 29.4 68.3 30.8C68.3 31.2 68.5001 31.3 68.9001 31.3C69.6001 31.3 70.3001 31.3 71.0001 31.3C71.7001 31.3 72.4 31.3 73.1 31.3C73.6 31.3 73.7001 31.2 73.7001 30.7C73.7001 29.4 73.7001 28 73.7001 26.7C73.7001 26.3 73.5 26.1 73.1 26.1Z" fill="white" fill-opacity="0.28"/>
</svg>
