<svg width="189" height="56" viewBox="0 0 189 56" fill="none" xmlns="http://www.w3.org/2000/svg">
<path d="M101.8 26C101.4 25.5 100.9 25.1 100.3 24.9C99.6999 24.6 98.7999 24.5 97.7999 24.5C97.0999 24.5 96.3999 24.7 95.5999 25.1C94.7999 25.5 94.1999 26.1 93.7999 26.9H93.6999V19.7H89.8999V38.7999H93.6999V31.5C93.6999 30.1 93.8999 29.1 94.3999 28.5C94.8999 27.9 95.5999 27.6 96.5999 27.6C97.4999 27.6 98.0999 27.9 98.4999 28.4C98.8999 29 98.9999 29.8 98.9999 31V38.7999H102.8V30.2999C102.8 29.3999 102.7 28.7 102.6 28C102.4 27.1 102.1 26.5 101.8 26Z" fill="white" fill-opacity="0.28"/>
<path d="M81.6999 32.8H81.5999L78.3999 19.6H74.3999L71.0999 32.6L68.0999 19.6H63.8999L68.8999 38.7H73.1999L76.2999 25.7H76.3999L79.5999 38.7H83.7999L86.0999 30.2L88.8999 19.6H84.7999L81.6999 32.8Z" fill="white" fill-opacity="0.28"/>
<path d="M135.9 36.1C135.7 36.2 135.4 36.3 135.1 36.4C134.8 36.5 134.5 36.5 134.3 36.5C133.9 36.5 133.6 36.5 133.2 36.4C132.8 36.3 132.5 36.2 132.3 36C132 35.8 131.8 35.6 131.6 35.3C131.4 35 131.3 34.7 131.3 34.2H127.7C127.7 35.1 127.9 35.9 128.3 36.5C128.7 37.1 129.2 37.6 129.8 38C130.4 38.4 131.1 38.6 131.8 38.8C132.6 39 133.3 39 134.2 39C135 39 135.8 38.9 136.5 38.8C137.3 38.7 137.9 38.4 138.5 38C139.1 37.6 139.6 37.1 139.9 36.5C140.3 35.9 140.5 35.1 140.5 34.2C140.5 33.6 140.4 33 140.1 32.6C139.8 32.2 139.5 31.8 139.1 31.5C138.7 31.2 138.2 31 137.7 30.8C137.2 30.6 136.6 30.5 136.1 30.3C135.6 30.2 135 30.1 134.5 29.9C134 29.8 133.5 29.7 133.1 29.5C132.7 29.4 132.4 29.2 132.1 29C131.8 28.8 131.7 28.5 131.7 28.2C131.7 27.9 131.8 27.7 131.9 27.5C132 27.3 132.2 27.2 132.4 27.1C132.6 27 132.8 27 133.1 26.9C133.3 26.9 133.6 26.9 133.8 26.9C134.5 26.9 135.1 27 135.6 27.3C136.1 27.6 136.4 28.1 136.4 28.8H140C139.9 27.9 139.7 27.2 139.3 26.7C138.9 26.1 138.5 25.7 137.9 25.4C137.3 25.1 136.7 24.8 136 24.7C135.3 24.6 134.6 24.5 133.8 24.5C133 24.5 132.3 24.6 131.6 24.7C130.9 24.8 130.2 25.1 129.7 25.4C129.1 25.7 128.7 26.2 128.3 26.7C127.9 27.3 127.8 28 127.8 28.9C127.8 29.5 127.9 30 128.2 30.4C128.4 30.8 128.8 31.2 129.2 31.5C129.6 31.8 130.1 32 130.6 32.2C131.1 32.4 131.7 32.5 132.2 32.6C133.6 32.9 134.6 33.2 135.4 33.4C136.2 33.7 136.5 34.1 136.5 34.7C136.5 35 136.4 35.3 136.3 35.5C136.4 35.8 136.2 36 135.9 36.1Z" fill="white" fill-opacity="0.28"/>
<path d="M163.6 37C164.1 37.7 164.7 38.2 165.4 38.5C166.1 38.9 166.9 39 167.8 39C168.8 39 169.7 38.8 170.5 38.4C171.2 38 171.9 37.5 172.4 36.8C172.9 36.1 173.3 35.4 173.5 34.5C173.7 33.6 173.9 32.7 173.9 31.8C173.9 30.8 173.8 29.9 173.5 29C173.2 28.1 172.9 27.3 172.3 26.6C171.8 25.9 171.1 25.4 170.3 25C169.5 24.6 168.6 24.4 167.5 24.4C166.6 24.4 165.9 24.6 165.1 24.9C164.4 25.2 163.8 25.8 163.3 26.5H163.2V24.7H159.6V43.4H163.4V37H163.6ZM163.6 30.2C163.7 29.7 163.9 29.2 164.2 28.8C164.5 28.4 164.8 28.1 165.2 27.8C165.6 27.5 166.1 27.4 166.8 27.4C167.4 27.4 167.9 27.5 168.3 27.8C168.7 28.1 169.1 28.4 169.3 28.8C169.6 29.2 169.8 29.7 169.9 30.2C170 30.7 170.1 31.3 170.1 31.8C170.1 32.4 170 32.9 169.9 33.4C169.8 33.9 169.6 34.4 169.3 34.8C169 35.2 168.7 35.5 168.3 35.8C167.9 36 167.4 36.2 166.7 36.2C166.1 36.2 165.6 36.1 165.2 35.8C164.8 35.6 164.4 35.2 164.2 34.8C163.9 34.4 163.8 33.9 163.6 33.4C163.5 32.9 163.4 32.3 163.4 31.8C163.4 31.2 163.5 30.7 163.6 30.2Z" fill="white" fill-opacity="0.28"/>
<path d="M182.9 39C183.9 39 184.8 38.8 185.6 38.4C186.3 38 187 37.5 187.5 36.8C188 36.1 188.4 35.4 188.6 34.5C188.9 33.6 189 32.7 189 31.8C189 30.8 188.9 29.9 188.6 29C188.3 28.1 188 27.3 187.5 26.6C187 25.9 186.3 25.4 185.5 25C184.7 24.6 183.8 24.4 182.7 24.4C181.8 24.4 181.1 24.6 180.3 24.9C179.6 25.2 179 25.8 178.5 26.5H178.4V24.7H174.8V43.4H178.6V37H178.7C179.1 37.7 179.8 38.2 180.5 38.5C181.3 38.9 182.1 39 182.9 39ZM179.3 34.8C179 34.4 178.9 33.9 178.7 33.4C178.6 32.9 178.5 32.3 178.5 31.8C178.5 31.2 178.6 30.7 178.7 30.1C178.8 29.6 179 29.1 179.3 28.7C179.6 28.3 179.9 28 180.3 27.7C180.7 27.4 181.2 27.3 181.9 27.3C182.5 27.3 183 27.4 183.4 27.7C183.8 28 184.2 28.3 184.4 28.7C184.7 29.1 184.9 29.6 185 30.1C185.1 30.6 185.2 31.2 185.2 31.7C185.2 32.3 185.1 32.8 185 33.3C184.9 33.8 184.7 34.3 184.4 34.7C184.1 35.1 183.8 35.4 183.4 35.7C183 35.9 182.5 36.1 181.8 36.1C181.2 36.1 180.7 36 180.3 35.7C179.9 35.6 179.6 35.2 179.3 34.8Z" fill="white" fill-opacity="0.28"/>
<path d="M109.1 39.1C110 39.1 110.8 39 111.6 38.7C112.4 38.5 113.1 38 113.7 37.4C113.7 37.6 113.8 37.9 113.8 38.1C113.8 38.3 113.9 38.5 114 38.8H117.8C117.6 38.5 117.5 38.1 117.4 37.5C117.3 36.9 117.3 36.3 117.3 35.7V28.5C117.3 27.7 117.1 27 116.7 26.5C116.3 26 115.8 25.6 115.3 25.3C114.7 25 114.1 24.8 113.3 24.7C112.6 24.6 111.9 24.6 111.2 24.6C110.4 24.6 109.7 24.7 108.9 24.8C108.1 24.9 107.5 25.2 106.9 25.6C106.3 26 105.8 26.4 105.4 27C105 27.6 104.8 28.3 104.7 29.2H108.5C108.6 28.4 108.8 27.9 109.3 27.6C109.7 27.3 110.3 27.1 111.1 27.1C111.4 27.1 111.8 27.1 112.1 27.2C112.4 27.2 112.6 27.3 112.9 27.5C113.1 27.6 113.3 27.8 113.4 28.1C113.5 28.3 113.6 28.7 113.6 29.1C113.6 29.5 113.5 29.8 113.2 30C112.9 30.2 112.6 30.4 112.2 30.5C111.8 30.6 111.3 30.7 110.7 30.7C110.1 30.8 109.6 30.8 109 30.9C108.4 31 107.9 31.1 107.3 31.3C106.7 31.5 106.2 31.7 105.8 32C105.4 32.3 105 32.7 104.7 33.2C104.4 33.7 104.3 34.4 104.3 35.1C104.3 35.8 104.4 36.4 104.7 36.9C104.9 37.4 105.3 37.8 105.7 38.2C106.1 38.5 106.7 38.8 107.2 39C107.8 39 108.5 39.1 109.1 39.1ZM108.4 33.9C108.5 33.7 108.7 33.5 108.9 33.3C109.1 33.2 109.3 33 109.6 32.9C109.9 32.8 110.2 32.7 110.4 32.7C110.7 32.6 111 32.6 111.3 32.6C111.6 32.6 111.9 32.5 112.2 32.5C112.5 32.4 112.7 32.4 113 32.3C113.2 32.2 113.4 32.1 113.6 32V33.4C113.6 33.6 113.6 33.9 113.5 34.3C113.5 34.7 113.3 35 113.1 35.4C112.9 35.8 112.6 36 112.2 36.3C111.8 36.6 111.2 36.7 110.5 36.7C110.2 36.7 109.9 36.7 109.6 36.6C109.3 36.5 109.1 36.5 108.8 36.3C108.6 36.2 108.4 36 108.3 35.7C108.2 35.5 108.1 35.2 108.1 34.8C108.2 34.4 108.3 34.1 108.4 33.9Z" fill="white" fill-opacity="0.28"/>
<path d="M159.2 38.7L152 19.6H147.7L140.5 38.7H144.7L146.2 34.4H153.3L154.7 38.7H159.2ZM147.3 31.3L149.8 24.3H149.9L152.3 31.3H147.3Z" fill="white" fill-opacity="0.28"/>
<path d="M127.3 35.7C127.1 35.7 126.9 35.8 126.7 35.8C126.5 35.8 126.3 35.8 126.1 35.8C125.5 35.8 125 35.7 124.8 35.5C124.6 35.3 124.5 34.9 124.5 34.2V27.3H127.3V24.8H124.5V20.6H120.7V24.8H118.4V27.3H120.7V35.5C120.7 36.2 120.8 36.8 121 37.2C121.2 37.6 121.6 38 122 38.2C122.4 38.4 122.9 38.6 123.4 38.7C124 38.8 124.5 38.8 125.1 38.8C125.5 38.8 125.9 38.8 126.3 38.8C126.7 38.8 127 38.8 127.4 38.7V35.7H127.3Z" fill="white" fill-opacity="0.28"/>
<path d="M28.2 0C13.2 0 1 12.2 1 27.3C1 32.5 2.4 37.3 4.9 41.4L0 56L15.1 51.2C19.1 53.4 23.7 54.6 28.3 54.6C43.3 54.6 55.5 42.4 55.5 27.3C55.5 12.2 43.3 0 28.2 0ZM28.2 50.2C23.6 50.2 19.2 48.8 15.6 46.4L6.8 49.2L9.7 40.7C7 36.9 5.3 32.3 5.3 27.3C5.3 14.7 15.6 4.4 28.2 4.4C40.8 4.4 51.1 14.7 51.1 27.3C51.1 39.9 40.9 50.2 28.2 50.2Z" fill="white" fill-opacity="0.28"/>
<path d="M40.6999 32.8C39.9999 32.5 36.7999 30.8 36.0999 30.6C35.4999 30.4 34.8999 30.5 34.4999 31.1C33.8999 32 33.1999 32.9 32.6999 33.5C32.2999 33.9 31.5999 34 31.0999 33.8C30.3999 33.5 28.2999 32.8 25.6999 30.5C23.6999 28.7 22.3999 26.5 21.9999 25.9C21.5999 25.2 21.9999 24.8 22.2999 24.5C22.5999 24.1 22.9999 23.8 23.2999 23.4C23.5999 23 23.7999 22.8 23.9999 22.3C24.1999 21.9 24.0999 21.4 23.8999 21.1C23.6999 20.8 22.3999 17.5 21.7999 16.1C21.3999 15 20.9999 15 20.2999 15C19.9999 15 19.7999 15 19.4999 15C18.5999 15 17.6999 15.3 17.1999 15.8C16.4999 16.5 14.8999 18.1 14.8999 21.4C14.8999 24.7 17.2999 27.9 17.5999 28.3C17.8999 28.7 22.2999 35.6 28.9999 38.4C34.2999 40.6 35.7999 40.4 36.9999 40.1C38.7999 39.7 40.8999 38.4 41.4999 36.9C42.0999 35.3 42.0999 34 41.8999 33.7C41.7999 33.3 41.3999 33.1 40.6999 32.8Z" fill="white" fill-opacity="0.28"/>
</svg>
