<svg width="201" height="37" viewBox="0 0 201 37" fill="none" xmlns="http://www.w3.org/2000/svg">
<path d="M11.5001 31.7001C11.2001 31.4001 10.9001 31.2001 10.6001 30.9001C10.9001 31.2001 11.2001 31.5001 11.5001 31.7001C19.1001 38.2001 30.4001 37.3 37.1001 29.8C30.4001 37.2 19.1001 38.0001 11.5001 31.7001Z" fill="white" fill-opacity="0.28"/>
<path d="M169.1 20.5C169.1 23.2 169.1 25.9 169.1 28.7C169.1 28.7 169.1 28.7 169.2 28.7C169.2 26 169.2 23.2 169.1 20.5Z" fill="white" fill-opacity="0.28"/>
<path d="M169.1 14.6C169.1 12 169.1 9.39998 169.1 6.69998C171.1 6.69998 173 6.69998 175 6.69998C175 6.69998 175 6.69998 175 6.59998C173 6.59998 171 6.59998 169 6.59998C169 9.29998 169 11.9 169.1 14.6C166.4 14.5 164 14.5 161.3 14.5C161.3 14.5 161.3 14.5 161.3 14.6C164 14.6 166.5 14.6 169.1 14.6Z" fill="white" fill-opacity="0.28"/>
<path d="M155.5 6.69998C157.4 6.69998 159.3 6.69998 161.3 6.69998C161.3 6.69998 161.3 6.69998 161.3 6.59998C159.3 6.59998 157.4 6.59998 155.5 6.69998C155.4 14 155.4 21.3 155.4 28.7C155.4 28.7 155.4 28.7 155.5 28.7C155.5 21.3 155.5 14 155.5 6.69998Z" fill="white" fill-opacity="0.28"/>
<path d="M195.1 7.70003C195.1 7.40003 195.1 7.20002 195.1 6.90002C195.1 6.90002 195.1 6.90002 195 6.90002C195 7.30002 195 7.50002 195 7.90002C195 11.5 195.1 15.1 195 18.8C195 19.5 194.9 20.2 194.6 20.8C194.9 20.2 195 19.5 195 18.7C195.2 14.9 195.1 11.3 195.1 7.70003Z" fill="white" fill-opacity="0.28"/>
<path d="M185.2 28.3C188.7 29.4 192.1 29.4 195.1 26.6C195.2 26.6 195.2 26.6 195.4 26.5C195.4 27.2 195.4 27.9 195.4 28.6C197.3 28.6 199.1 28.6 201 28.6V28.5C199.1 28.5 197.3 28.5 195.4 28.5C195.4 27.8 195.4 27.1001 195.4 26.4001C195.2 26.4001 195.1 26.4 195.1 26.5C192.2 29.3 188.7 29.3001 185.2 28.2001C181.8 27.0001 180.2 24.3 179.7 20.9C179.6 20.1 179.5 19.2 179.5 18.4C179.5 14.8 179.5 11.1 179.5 7.50005C179.5 7.30005 179.5 7.10005 179.5 6.80005C179.5 6.80005 179.5 6.80005 179.4 6.80005C179.4 7.10005 179.4 7.40005 179.4 7.60005C179.4 11.2 179.4 14.9 179.4 18.5C179.4 19.3 179.5 20.2 179.6 21C180.2 24.5 181.7 27.2 185.2 28.3Z" fill="white" fill-opacity="0.28"/>
<path d="M66.4 23.4001C63.6 24.1001 60.7 22.5 59.7 19.8C60.6 22.5 63.5 24.1001 66.4 23.4001Z" fill="white" fill-opacity="0.28"/>
<path d="M62.6001 12.4C64.4001 11.6 66.2001 11.8 67.6001 12.5C66.2001 11.8 64.5001 11.6 62.6001 12.4Z" fill="white" fill-opacity="0.28"/>
<path d="M64.5 29.2C70.3 29.3 75.5 25.6 75.9 21.3C74 20.9 72.1 20.3 70.3 19.9C72.2 20.3 74 20.8 75.9 21.3C75.4 25.7 70.1 29.3 64.5 29.2Z" fill="white" fill-opacity="0.28"/>
<path d="M75.7999 14C73.9999 14.4 72.1999 14.9 70.3999 15.3C72.1999 14.9 73.9999 14.5 75.7999 14Z" fill="white" fill-opacity="0.28"/>
<path d="M39.9999 6.29995C39.3999 5.29995 38.6999 4.29995 37.9999 3.19995C38.6999 4.29995 39.2999 5.39995 39.9999 6.29995C43.9999 13.9 42.8 23.4 37.2 29.7C37.2 29.7 37.1999 29.6999 37.2999 29.5999C42.8999 23.3999 43.9999 13.8 39.9999 6.29995Z" fill="white" fill-opacity="0.28"/>
<path d="M39.9 6.40005C39.3 5.40005 38.7 4.40005 38 3.30005C28.8 12.6 19.7 21.7001 10.5 30.9001C10.9 31.2001 11.1 31.5001 11.4 31.7001C19 38.1001 30.3 37.2 37 29.8C42.8 23.4 44 13.9 39.9 6.40005Z" fill="white" fill-opacity="0.28"/>
<path d="M4.4 32.8C13.6 23.5 22.7 14.3 31.9 5.10001C31.5 4.80001 31.3 4.50001 31 4.30001C23.4 -2.09999 12.1 -1.19999 5.29996 6.30001C-0.400041 12.6 -1.50003 22.1 2.49997 29.7C2.99997 30.6 3.7 31.6 4.4 32.8Z" fill="white" fill-opacity="0.28"/>
<path d="M68 12.8C68.8 13.4 69.5 14.2 69.9 15.1C69.5 14.2 68.9 13.4 68 12.8Z" fill="white" fill-opacity="0.28"/>
<path d="M69.8999 15.1C69.9999 15.2 70.1999 15.5 70.2999 15.4C70.1999 15.4 69.9999 15.2 69.8999 15.1Z" fill="white" fill-opacity="0.28"/>
<path d="M64.5001 29.2001C58.4001 29.1001 53.8001 24.6 53.6001 18.5C53.3001 11.8 57.4001 7.10005 64.0001 6.40005C64.3001 6.40005 64.7001 6.30005 65.0001 6.30005C64.6001 6.30005 64.3001 6.30005 63.9001 6.40005C57.3001 7.10005 53.3001 11.8 53.5001 18.5C53.7001 24.6 58.3001 29.1001 64.5001 29.2001C64.4001 29.2001 64.4001 29.2001 64.5001 29.2001Z" fill="white" fill-opacity="0.28"/>
<path d="M66.3999 23.4C66.9999 23.3 67.5999 23 67.9999 22.7C67.4999 23 66.9999 23.2 66.3999 23.4Z" fill="white" fill-opacity="0.28"/>
<path d="M53.6 18.4C53.8 24.5 58.4 29 64.5 29.1C70.2 29.2 75.4 25.6 75.8 21.2C73.9 20.8 72.1 20.3 70.2 19.8C69.9 20.3 69.7 20.7 69.4 21.1C69 21.7 68.5 22.2 68 22.6C67.5 22.9 67 23.2 66.4 23.3C63.6 24 60.7 22.5 59.7 19.7C58.7 16.8 60 13.5 62.7 12.4C64.5 11.6 66.3 11.8 67.7 12.5C67.8 12.6 67.9 12.6 68 12.7L68.1 12.8C69 13.4 69.6 14.2 70 15.1C70.1 15.2 70.3 15.4 70.4 15.4C72.2 15 74 14.5 75.8 14.1C75.8 13.8 75.7 13.6 75.6 13.3C75.6 13.2 75.5 13.1 75.5 12.9C75.5 12.8 75.4 12.6 75.4 12.5C75.3 12.3 75.2 12.1 75.1 11.9C75.1 11.9 75.1 11.8 75 11.8C73.2 8.59999 69.1 6.29999 65 6.39999C64.7 6.39999 64.3 6.39999 64 6.49999C57.3 6.99999 53.3 11.7 53.6 18.4Z" fill="white" fill-opacity="0.28"/>
<path d="M185.3 7.69998C185.3 11.1 185.3 14.6 185.3 18C185.3 18.4 185.3 18.8 185.4 19.1C185.8 22 187.7 23.7 190.5 23.6C192.5 23.5 194.1 22.4 194.7 20.6C194 22.3 192.5 23.4 190.5 23.5C187.7 23.6 185.8 22 185.4 19C185.3 18.6 185.3 18.2 185.3 17.8C185.3 14.4 185.3 10.9 185.3 7.49998C185.3 7.19998 185.3 6.89998 185.3 6.59998C183.3 6.59998 181.4 6.59998 179.5 6.59998V6.69998C181.4 6.69998 183.2 6.69998 185.2 6.69998C185.3 6.99998 185.3 7.29998 185.3 7.69998Z" fill="white" fill-opacity="0.28"/>
<path d="M200.9 28.6C201 28.6 201 28.6 200.9 28.6C201 21.2 201 13.9 201 6.59998C199 6.69998 197.1 6.69998 195.1 6.69998V6.79998C197 6.79998 198.9 6.79998 200.8 6.79998C200.9 13.9 200.9 21.2 200.9 28.6Z" fill="white" fill-opacity="0.28"/>
<path d="M179.5 18.4C179.5 19.2 179.6 20.1 179.7 20.9C180.2 24.3 181.8 27.1 185.2 28.2C188.7 29.3 192.1 29.3 195.1 26.5C195.2 26.4 195.2 26.4 195.4 26.4C195.4 27.1 195.4 27.8 195.4 28.5C197.3 28.5 199.1 28.5 201 28.5C201 21.1 201 13.8 200.9 6.69995C199 6.69995 197.2 6.69995 195.2 6.69995C195.2 6.99995 195.2 7.29995 195.2 7.49995C195.2 11.1 195.3 14.7 195.2 18.4C195.2 19.2 195 19.9 194.8 20.5C194.1 22.3 192.6 23.4 190.6 23.5C187.8 23.6 185.9 22 185.5 19C185.4 18.6 185.4 18.2 185.4 17.9C185.4 14.5 185.4 11 185.4 7.59995C185.4 7.29995 185.4 6.99995 185.4 6.69995C183.4 6.69995 181.5 6.69995 179.7 6.69995C179.7 6.99995 179.7 7.19995 179.7 7.39995C179.5 11.1 179.5 14.7 179.5 18.4Z" fill="white" fill-opacity="0.28"/>
<path d="M161.3 14.6C161.3 11.9 161.3 9.29995 161.3 6.69995C161.3 6.69995 161.3 6.69995 161.2 6.69995C161.3 9.29995 161.3 11.9 161.3 14.6Z" fill="white" fill-opacity="0.28"/>
<path d="M175 27.7999C175 28.4999 174.7 28.7 174.1 28.7C174.1 28.7 174.1 28.7 174.2 28.7C174.9 28.7 175.1 28.5999 175 27.7999C175 21.0999 175.1 14.3 175.1 7.49995C175.1 7.19995 175.1 6.89995 175.1 6.69995C175.1 6.69995 175.1 6.69995 175 6.69995C175 6.99995 175 7.19995 175 7.49995C175 14.2 175 20.9999 175 27.7999Z" fill="white" fill-opacity="0.28"/>
<path d="M161.3 28.7C161.4 28.7 161.4 28.7 161.3 28.7C161.4 26 161.4 23.2 161.4 20.5C161.4 20.5 161.4 20.5 161.3 20.5C161.3 23.2 161.3 25.9 161.3 28.7Z" fill="white" fill-opacity="0.28"/>
<path d="M155.5 28.7C157.5 28.7 159.4 28.7 161.4 28.8C161.4 26 161.4 23.3 161.4 20.6C161.4 20.6 161.4 20.6 161.5 20.6C164.1 20.6 166.6 20.6 169.2 20.6C169.2 20.6 169.2 20.6 169.3 20.6C169.3 23.3 169.3 26.1 169.3 28.8C171 28.8 172.7 28.7 174.3 28.8C174.9 28.8 175.2 28.6 175.2 27.9C175.2 21.1 175.2 14.3 175.2 7.49998C175.2 7.29998 175.2 6.99998 175.2 6.69998C173.2 6.69998 171.3 6.69998 169.3 6.69998C169.3 9.39998 169.3 12 169.3 14.6C166.6 14.6 164.2 14.6 161.5 14.6C161.5 14.6 161.5 14.6 161.5 14.5C161.5 14.5 161.5 14.5 161.4 14.5C161.4 11.8 161.4 9.19998 161.4 6.59998C159.4 6.59998 157.5 6.59998 155.6 6.59998C155.5 14 155.5 21.3 155.5 28.7Z" fill="white" fill-opacity="0.28"/>
<path d="M84.4001 27.1C84.7001 27.2 84.7 27.3 84.8 27.4C88.9 30.2 94.5001 29.6 97.9001 26C100.7 23.1 101.6 19.5 101.1 15.7C100.1 7.70004 91.3001 3.70004 84.7001 8.10004C84.6001 8.20004 84.5001 8.20004 84.4001 8.20004C84.3001 7.60004 84.3 7.10004 84.3 6.60004C82.4 6.60004 80.6 6.60004 78.8 6.60004C78.8 16.1 78.8 25.6 78.8 35.2C80.7 35.2 82.5001 35.2 84.4001 35.2C84.4001 32.5 84.4001 29.9 84.4001 27.1ZM89.9001 11.8C93.1001 11.8 95.5001 14.4 95.5001 17.8C95.5001 21 93.1001 23.5 89.9001 23.5C86.7001 23.5 84.3 20.9 84.3 17.6C84.2 14.4 86.7001 11.7 89.9001 11.8Z" fill="white" fill-opacity="0.28"/>
<path d="M148.8 17.5C148.7 17.4 148.5 17.3 148.4 17.1C148.6 16.9 148.8 16.8 148.9 16.7C151 15.1 151.5 12.9 150.9 10.5C150.3 8.09998 148.6 7.09998 146.4 6.69998C146.1 6.59998 145.8 6.59998 145.6 6.59998C140.8 6.59998 136.1 6.59998 131.3 6.59998C131.2 6.59998 131.1 6.59998 130.9 6.69998C130.9 6.99998 130.8 7.09997 130.8 7.29997C130.8 14.2 130.8 21 130.8 27.9C130.8 28.5 131 28.7 131.6 28.7C136 28.7 140.4 28.7 144.8 28.7C145.5 28.7 146.2 28.6 146.8 28.5C149.4 28 151.2 26.2 151.6 23.7C152.1 20.9 151.4 19.1 148.8 17.5ZM137.5 11.2C139.4 11.2 141.2 11.2 143.1 11.2C144.5 11.2 145.4 12 145.4 13.2C145.4 14.2 144.8 15.1 143.8 15.1C141.5 15.2 139.2 15.1 136.9 15.1C136.8 13.8 136.8 12.5 136.8 11.2C137 11.3 137.3 11.2 137.5 11.2ZM145.7 22C145.6 23.1 144.7 23.9 143.3 23.9C141.4 23.9 139.6 23.9 137.7 23.9C137.3 23.9 137 23.9 136.6 23.9C136.6 22.4 136.6 21.1 136.6 19.6C137 19.6 137.4 19.6 137.7 19.6C139.6 19.6 141.4 19.6 143.3 19.6C145.1 19.6 145.9 20.6 145.7 22Z" fill="white" fill-opacity="0.28"/>
<path d="M120.4 26.9C120.4 27.5 120.4 28.1 120.4 28.7C122.3 28.7 124.1 28.7 126 28.7C126 21.3 126 13.9 126 6.60002C124.1 6.60002 122.3 6.60002 120.4 6.60002C120.4 7.20002 120.4 7.70002 120.4 8.30002C119.5 7.80002 118.6 7.20002 117.7 6.80002C113.4 5.10002 108.2 6.90002 105.6 10.8C102.5 15.3 103.1 22 106.9 26C110.6 29.8 117.1 30.3 120.3 26.9C120.1 26.9 120.2 26.9 120.4 26.9ZM114.9 23.6C111.7 23.6 109.3 21.1 109.3 17.8C109.3 14.4 111.7 11.8 114.9 11.9C118.1 11.9 120.5 14.5 120.5 17.8C120.5 20.9 118 23.6 114.9 23.6Z" fill="white" fill-opacity="0.28"/>
</svg>
