<svg width="201" height="46" viewBox="0 0 201 46" fill="none" xmlns="http://www.w3.org/2000/svg">
<path d="M164.6 13.5C162.6 13.8 161 15 159.5 16.3C159.4 16.4 159.2 16.5 159 16.7C159 16.4 159 16.2 159 16.1C159 13.6 159 11.2 159 8.69998C159 8.29998 159 7.89998 159 7.49998C158.8 6.09998 158 5.29998 156.5 5.19998C155.1 5.09998 154.1 5.79998 153.7 7.09998C153.6 7.49998 153.5 7.99998 153.5 8.39998C153.5 16.5 153.5 24.6 153.5 32.7C153.5 33.1 153.6 33.5 153.7 33.9C154 35.1 155 35.7 156.2 35.7C157.5 35.7 158.5 35 158.8 33.8C158.9 33.3 159 32.7 159 32.1C159.4 32.4 159.7 32.8 160.1 33.1C162.5 35.3 165.4 36 168.6 35.4C172.2 34.7 174.3 32.3 175.5 29C176.4 26.5 176.5 23.9 176 21.2C175 15.4 170.4 12.5 164.6 13.5ZM169.3 29.3C168 31.1 166.2 31.8 164.1 31.4C162 31 160.6 29.8 159.9 27.8C159.1 25.5 159.2 23.2 160.1 20.9C161.3 17.9 164.5 16.5 167.4 17.8C169 18.5 169.9 19.9 170.3 21.6C170.5 22.5 170.6 23.5 170.7 24.5C170.5 26.2 170.3 27.8 169.3 29.3Z" fill="white" fill-opacity="0.28"/>
<path d="M85.7001 16.5C83.8001 14.3 81.3001 13.3 78.4001 13.4C76.8001 13.4 75.2001 13.7 73.9001 14.6C72.9001 15.2 72.1001 16.1 71.2001 16.8C71.2001 16.6 71.2001 16.4 71.2001 16.1C71.1001 15 70.8001 14.2 69.8001 13.7C68.8001 13.2 67.8001 13.2 66.9001 13.8C66.4001 14.1 66.1001 14.5 66.1001 15.1C66.1001 24.2 66.1001 33.3 66.1001 42.4C66.1001 42.8 66.2001 43.2 66.6001 43.4C68.1001 44.6 70.6001 43.9 71.1001 41.9C71.2001 41.4 71.3001 40.8 71.3001 40.2C71.3001 37.7 71.3001 35.1 71.3001 32.6C71.3001 32.4 71.3001 32.2 71.3001 32C71.6001 32.3 71.8001 32.6 72.0001 32.8C73.8001 34.8 76.1001 35.8 78.9001 35.7C83.0001 35.6 85.9001 33.6 87.5001 29.9C88.7001 27.3 88.8001 24.5 88.3001 21.7C87.8001 19.8 87.0001 18 85.7001 16.5ZM81.0001 29.6C79.5001 31.5 76.9001 32 74.8001 31C72.8001 30 71.9001 28.3 71.5001 26.3C71.2001 24.7 71.4001 23 71.8001 21.4C72.7001 18.2 76.2001 16.6 79.3001 18C80.5001 18.6 81.3001 19.5 81.8001 20.6C82.3001 21.8 82.6001 23.1 82.6001 25.1C82.5001 26.3 82.2001 28.1 81.0001 29.6Z" fill="white" fill-opacity="0.28"/>
<path d="M148.8 31.4C148.5 30.3 148.2 29.2 148.3 28C148.3 26 148.3 23.9 148.3 21.9C148.3 20.9 148.2 19.9 148.1 18.9C147.7 16.3 146.2 14.6 143.6 13.9C141.3 13.3 139 13.2 136.7 13.3C134.9 13.4 133.2 13.8 131.6 14.6C129.9 15.4 128.6 16.7 128.2 18.7C128 19.9 128.5 20.8 129.6 21.2C130.8 21.6 131.8 21.4 132.5 20.4C132.8 20.1 133 19.7 133.2 19.4C134 18.3 134.9 17.5 136.3 17.4C137.4 17.3 138.6 17.2 139.7 17.3C140.7 17.4 141.7 17.7 142.2 18.8C142.6 19.6 142.7 20.5 142.8 21.5C142.6 21.6 142.4 21.6 142.3 21.7C139.3 22.3 136.3 23 133.2 23.7C131.6 24 130.2 24.6 129 25.7C126.2 28.3 126.7 32.8 130.1 34.8C132.2 36.1 134.5 36.2 136.9 35.9C139.2 35.6 141.1 34.5 142.9 33.2C143 33.1 143.1 33.1 143.2 33C143.8 33.8 144.4 34.5 145 35.3C146.2 36.7 148.6 36.4 149.4 34.6C149.5 34.3 149.6 33.9 149.5 33.7C149.2 32.7 149 32 148.8 31.4ZM142 29.4C141.2 31 139.8 31.6 138.2 32C137 32.3 135.7 32.3 134.5 31.7C133.2 31 132.5 29.6 133 28.3C133.2 27.6 133.7 27.1 134.4 26.8C135.5 26.4 136.6 26.1 137.7 25.8C139.3 25.4 140.9 25.1 142.4 24.7C142.5 24.7 142.5 24.7 142.7 24.7C142.6 26.3 142.7 27.9 142 29.4Z" fill="white" fill-opacity="0.28"/>
<path d="M200.9 15.1C200.5 13.9 199.6 13.2 198.2 13.2C196.8 13.2 195.8 14 195.5 15.2C195.4 15.7 195.3 16.3 195.3 16.9C195.2 20.1 195.2 23.4 195.1 26.7C195 29.3 193.1 30.8 191.2 31.3C188.7 31.9 186.8 30.8 186.3 28.2C186.1 27.3 186 26.4 186 25.5C186 22.6 186 19.7 186 16.8C186 16.4 186 16 185.9 15.5C185.6 14.2 184.6 13.4 183.1 13.3C181.7 13.3 180.6 14 180.3 15.4C180.2 15.9 180.2 16.4 180.2 16.9C180.2 20.4 180.2 23.8999 180.2 27.3999C180.2 28.2999 180.2 29.2 180.4 30.1C180.8 32.5 182.1 34.3 184.4 35.2C185.2 35.5 186 35.7 186.8 35.8C189.5 36 192.1 35.4 194.1 33.5C194.5 33.1 195 32.7 195.5 32.1C195.5 32.5 195.5 32.8 195.5 33.1C195.5 34 195.9 34.7 196.6 35.2C197.5 35.9 198.5 36 199.5 35.5C200.5 35 200.8 34.2 200.8 33.2C200.8 27.4 200.8 21.6 200.8 15.8C201 15.6 201 15.3 200.9 15.1Z" fill="white" fill-opacity="0.28"/>
<path d="M118.2 22.1C118.1 21.9 117.9 21.7 117.8 21.5C119 20.4 120.2 19.3 121.4 18.2C121.8 17.8 122.2 17.3 122.5 16.7C123 15.9 122.8 14.9 122 14.2C121.1 13.5 119.6 13.5 118.8 14.3C118.4 14.7 117.9 15.1 117.5 15.5C115.6 17.5 113.7 19.4 111.8 21.4C111.7 21.5 111.5 21.6 111.3 21.8C111.3 21.5 111.3 21.3 111.3 21.2C111.3 17.3 111.3 13.4 111.3 9.49997C111.3 9.09997 111.3 8.59997 111.2 8.19997C111 6.89997 110.2 6.09997 109 5.99997C107.6 5.89997 106.7 6.49998 106.3 7.79998C106.1 8.39998 106 9.09997 106 9.69997C106 17.1 106 24.5 106 31.9C106 32.2 106 32.6 106.1 32.9C106.4 33.9 106.8 34.7 107.9 35C109 35.3 110 34.9 110.7 34C111.1 33.5 111.3 32.8 111.3 32.2C111.3 30.9 111.3 29.5 111.3 28.2C111.3 28 111.3 27.8 111.4 27.7C112.3 26.8 113.2 26 114.2 25.1C115.2 26.7 116.2 28.3 117.1 29.8C118 31.2 118.9 32.6 119.8 34C120 34.3 120.4 34.7 120.7 34.8C122.2 35.3 124 34.7 124.1 32.6C124.2 31.8 123.7 31.2 123.3 30.6C121.9 27.7 120 24.9 118.2 22.1Z" fill="white" fill-opacity="0.28"/>
<path d="M96.3001 13.3C94.6001 13.2 93.5001 13.9 93.2001 15.4C93.1001 15.9 93.1001 16.3 93.1001 16.8C93.1001 19.3 93.1001 21.9 93.1001 24.4C93.1001 25.5 93.1001 26.6 93.1001 27.7C93.1001 29.4 93.1001 31.2 93.1001 32.9C93.2001 34.5 94.2001 35.5 95.7001 35.7C97.2001 35.8 98.4001 34.9 98.7001 33.4C98.8001 33 98.8001 32.5 98.8001 32.1C98.8001 27 98.8001 21.8 98.8001 16.7C98.8001 16.4 98.8001 16.1 98.8001 15.9C98.7001 14.5 97.6001 13.4 96.3001 13.3Z" fill="white" fill-opacity="0.28"/>
<path d="M95.9 10.7C97.6 10.7 98.8 9.60005 98.8 8.00005C98.8 6.40005 97.7 5.30005 96 5.30005C94.3 5.30005 93 6.50004 93 8.10004C93 9.60004 94.2 10.7 95.9 10.7Z" fill="white" fill-opacity="0.28"/>
<path d="M40.4999 11.8L40.1999 11.6C39.9999 11 39.7999 10.3 39.4999 9.69998C38.6999 8.09998 37.3999 6.79998 35.9999 5.69998C32.9999 3.39998 29.6999 1.59999 25.7999 1.39999C24.7999 1.39999 23.7999 1.49998 22.7999 1.69998C21.1999 1.39998 16.4999 0.599984 13.1999 0.999984C13.0999 0.999984 12.9999 0.999983 12.7999 1.09998C12.2999 1.09998 11.8999 1.19998 11.3999 1.19998C8.49994 1.59998 5.79994 2.69999 3.39994 4.39999C1.29994 5.89999 0.29994 7.99998 0.29994 10.5C0.29994 12.3 0.59994 13.9 1.09994 15.6C1.19994 15.8 1.19994 16 1.09994 16.2C0.99994 16.8 0.89994 17.4 0.79994 18C-5.99623e-05 22.2 -0.20006 26.3 0.29994 30.5C0.69994 33.1 1.59994 35.5 3.39994 37.5C4.99994 39.3 6.79994 40.7 8.79994 41.9C12.1999 44 15.8999 45.4 19.8999 45.8C23.7999 46.2 27.3999 45.2 30.6999 43.2C33.3999 41.6 35.6999 39.4 38.0999 37.4C38.1999 37.3 38.1999 37.3 38.2999 37.2C43.0999 37 45.1999 35.6 46.5999 33.6C48.1999 31.4 49.8999 21.2 40.4999 11.8ZM28.2999 31.5C19.8999 32 14.4999 25.6 12.1999 22.1C11.6999 21 11.3999 19.9 11.0999 18.7C10.5999 16.9 10.3999 15.1 10.2999 13.3C10.4999 9.79999 11.2999 8.59998 11.8999 7.69998C12.9999 6.19998 16.9999 4.69999 19.8999 3.89999C19.3999 4.79999 19.2999 5.79999 19.6999 6.79999C20.2999 8.49999 21.1999 9.89998 22.3999 11.1C25.1999 13.9 28.4999 15.7 32.3999 16.7C34.1999 17.2 35.8999 17.3 37.6999 16.8C39.2999 16.4 40.2999 15.3 40.4999 13.8C47.2999 23.9 38.3999 30.9 28.2999 31.5Z" fill="white" fill-opacity="0.28"/>
</svg>
