<svg width="241" height="46" viewBox="0 0 241 46" fill="none" xmlns="http://www.w3.org/2000/svg">
<path d="M35.9999 13.3C36.2999 13.3 36.6999 13.3 37.4999 13.3C38.2999 13.3 38.6999 13.3 38.9999 13.3C41.6999 13 43.7999 10.9 44.0999 8.19998C44.0999 7.89998 44.0999 7.49998 44.0999 6.69998C44.0999 5.89998 44.0999 5.49998 44.0999 5.19998C43.7999 2.49998 41.6999 0.399976 38.9999 0.0999756C38.6999 0.0999756 38.2999 0.0999756 37.4999 0.0999756C36.6999 0.0999756 36.2999 0.0999756 35.9999 0.0999756C33.2999 0.399976 31.1999 2.49998 30.8999 5.19998C30.8999 5.49998 30.8999 5.89998 30.8999 6.69998C30.8999 7.49998 30.8999 7.89998 30.8999 8.19998C31.0999 10.9 33.2999 13 35.9999 13.3Z" fill="white" fill-opacity="0.28"/>
<path d="M35.9999 28.7C36.2999 28.7 36.6999 28.7 37.4999 28.7C38.2999 28.7 38.6999 28.7 38.9999 28.7C41.6999 28.4 43.7999 26.3 44.0999 23.6C44.0999 23.3 44.0999 22.9 44.0999 22.1C44.0999 21.3 44.0999 20.9 44.0999 20.6C43.7999 17.9 41.6999 15.8 38.9999 15.5C38.6999 15.5 38.2999 15.5 37.4999 15.5C36.6999 15.5 36.2999 15.5 35.9999 15.5C33.2999 15.8 31.1999 17.9 30.8999 20.6C30.8999 20.9 30.8999 21.3 30.8999 22.1C30.8999 22.9 30.8999 23.3 30.8999 23.6C31.0999 26.3 33.2999 28.4 35.9999 28.7Z" fill="white" fill-opacity="0.28"/>
<path d="M20.6 28.7C20.9 28.7 21.3 28.7 22.1 28.7C22.9 28.7 23.3 28.7 23.6 28.7C26.3 28.4 28.4 26.3 28.7 23.6C28.7 23.3 28.7 22.9 28.7 22.1C28.7 21.3 28.7 20.9 28.7 20.6C28.4 17.9 26.3 15.8 23.6 15.5C23.3 15.5 22.9 15.5 22.1 15.5C21.3 15.5 20.9 15.5 20.6 15.5C17.9 15.8 15.8 17.9 15.5 20.6C15.5 20.9 15.5 21.3 15.5 22.1C15.5 22.9 15.5 23.3 15.5 23.6C15.7 26.3 17.9 28.4 20.6 28.7Z" fill="white" fill-opacity="0.28"/>
<path d="M35.9999 44.2C36.2999 44.2 36.6999 44.2 37.4999 44.2C38.2999 44.2 38.6999 44.2 38.9999 44.2C41.6999 43.9 43.7999 41.8 44.0999 39.1C44.0999 38.8 44.0999 38.4 44.0999 37.6C44.0999 36.8 44.0999 36.4 44.0999 36.1C43.7999 33.4 41.6999 31.3 38.9999 31C38.6999 31 38.2999 31 37.4999 31C36.6999 31 36.2999 31 35.9999 31C33.2999 31.3 31.1999 33.4 30.8999 36.1C30.8999 36.4 30.8999 36.8 30.8999 37.6C30.8999 38.4 30.8999 38.8 30.8999 39.1C31.0999 41.7 33.2999 43.8 35.9999 44.2Z" fill="white" fill-opacity="0.28"/>
<path d="M22.1 44.2C22.9 44.2 23.3 44.2 23.6 44.2C26.3 43.9 28.4 41.8 28.7 39.1C28.7 38.8 28.7 38.4 28.7 37.6C28.7 36.8 28.7 36.4 28.7 36.1C28.4 33.4 26.3 31.3 23.6 31C23.3 31 22.9 31 22.1 31C21.3 31 20.9 31 20.6 31C17.9 31.3 15.8 33.4 15.5 36.1C15.5 36.4 15.5 36.8 15.5 37.6C15.5 38.4 15.5 38.8 15.5 39.1C15.8 41.8 17.9 43.9 20.6 44.2C20.9 44.2 21.3 44.2 22.1 44.2Z" fill="white" fill-opacity="0.28"/>
<path d="M5.2001 44.2C5.5001 44.2 5.9001 44.2 6.7001 44.2C7.5001 44.2 7.9001 44.2 8.2001 44.2C10.9001 43.9 13.0001 41.8 13.3001 39.1C13.3001 38.8 13.3001 38.4 13.3001 37.6C13.3001 36.8 13.3001 36.4 13.3001 36.1C13.0001 33.4 10.9001 31.3 8.2001 31C7.9001 31 7.5001 31 6.7001 31C5.9001 31 5.5001 31 5.2001 31C2.5001 31.3 0.400098 33.4 0.100098 36.1C0.100098 36.4 0.100098 36.8 0.100098 37.6C0.100098 38.4 0.100098 38.8 0.100098 39.1C0.300098 41.7 2.5001 43.8 5.2001 44.2Z" fill="white" fill-opacity="0.28"/>
<path d="M78.1001 19.9C76.8001 18.4 75.1001 17.5 73.2001 17.1C71.4001 16.7 69.6001 16.7 67.8001 17.4C66.6001 17.8 65.6001 18.5 64.8001 19.4C64.3001 20 63.9001 20.6 63.3001 21.3C63.3001 21 63.2001 20.8 63.2001 20.6C63.4001 19.2 63.7001 17.8 64.4001 16.6C65.0001 15.6 65.9001 14.7 67.1001 14.3C68.2001 14 69.3001 13.8 70.4001 13.7C71.6001 13.6 72.9001 13.6 74.1001 13.6C75.8001 13.6 77.5001 13.3 79.1001 12.8C79.4001 12.7 79.6001 12.5 79.6001 12.1C79.6001 10.6 79.6001 9.10001 79.6001 7.60001C79.6001 7.20001 79.4001 7.10001 79.1001 7.20001C78.4001 7.40001 77.8001 7.60001 77.1001 7.60001C75.6001 7.70001 74.1001 7.90001 72.5001 8.00001C70.1001 8.10001 67.7001 8.20001 65.5001 9.30001C64.5001 9.80001 63.6001 10.4 62.8001 11.2C60.8001 13.2 59.8001 15.7 59.3001 18.5C59.0001 19.9 58.9001 21.3 58.8001 22.8C58.6001 25.8 58.6001 28.7 59.6001 31.6C60.0001 32.7 60.5001 33.8 61.2001 34.7C62.2001 36.1 63.5001 37.1 65.2001 37.8C66.2001 38.2 67.3001 38.4 68.4001 38.6C70.4001 39 72.5001 38.7 74.4001 37.9C76.1001 37.2 77.5001 36.1 78.7001 34.6C79.9001 33 80.5001 31.3 80.8001 29.4C81.0001 27.5 80.9001 25.6 80.2001 23.8C79.6001 22.2 79.0001 21 78.1001 19.9ZM75.9001 29.6C75.2001 32 73.3001 32.7 71.0001 32.8C70.7001 32.8 70.4001 32.8 70.0001 32.8C69.4001 32.8 68.7001 32.8 68.0001 32.7C66.3001 32.5 64.9001 31.8 64.2001 30.1C63.4001 28.1 63.5001 26.2 64.6001 24.3C65.4001 23.1 66.5001 22.5 67.9001 22.4C69.3001 22.3 70.6001 22.3 72.0001 22.4C73.5001 22.5 74.8001 23.3 75.5001 24.7C76.3001 26.3 76.4001 28 75.9001 29.6Z" fill="white" fill-opacity="0.28"/>
<path d="M200.1 45C200.1 41.6 200.1 38.3 200.1 35C200.1 34.8 200.1 34.6 200.2 34.4H200.3C200.5 34.6 200.6 34.9 200.8 35.1C201.4 35.8 202 36.6 202.7 37.1C203.7 37.9 204.8 38.2 206 38.4C208.5 38.8 210.7 38.4 212.8 36.9C215.3 35.1 216.7 32.6 217.1 29.7C217.6 26.3 217.2 23.1 215.2 20.2C214.3 18.9 213.2 17.8 211.8 17.1C210.3 16.3 208.6 16 206.9 16.1C205.8 16.2 204.7 16.4 203.7 16.8C202.3 17.5 201.3 18.5 200.6 19.8C200.5 20 200.3 20.1 200 20.3C200 20 199.9 19.8 199.9 19.6C199.9 18.8 199.9 18 199.9 17.2C199.9 16.7 199.8 16.6 199.3 16.6C198.2 16.6 197.1 16.6 196 16.6C195.2 16.6 195.2 16.6 195.2 17.4C195.2 26.6 195.2 35.7 195.2 44.9C195.2 45 195.2 45.2 195.2 45.3C195.2 45.7 195.4 46 195.8 45.9C196.8 45.9 197.9 45.9 199 45.9C200 45.9 200.1 45.9 200.1 45ZM200.2 26.1C200.4 25.3 200.6 24.5 201.1 23.7C201.6 22.9 202.4 22.3 203.2 22.1C204.1 21.8 205 21.7 205.9 21.7C207 21.7 208.2 21.6 209.3 22C210.8 22.5 211.7 23.6 212.1 25C212.6 26.5 212.6 28.1 212.1 29.6C211.7 30.9 210.8 31.7 209.6 32.3C208.5 32.8 207.4 32.7 206.3 32.7C205.7 32.7 205.1 32.7 204.5 32.7C202.5 32.6 201.1 31.5 200.5 29.7C200 28.6 199.9 27.3 200.2 26.1Z" fill="white" fill-opacity="0.28"/>
<path d="M94.6999 38.1C95.4999 37.9 96.2999 37.5 96.9999 37C97.8999 36.4 98.5999 35.5 98.9999 34.4C99.0999 34.4 99.0999 34.4 99.1999 34.4C99.2999 34.6 99.4999 34.8 99.4999 35.1C99.7999 36.8 101.4 37.9 102.9 37.8C103.8 37.8 104.8 37.8 105.8 37.8C106.4 37.8 106.5 37.7 106.5 37.1C106.5 36 106.5 34.9 106.5 33.8C106.5 32.7 106.5 32.7 105.4 32.7C105.3 32.7 105.2 32.7 105 32.7C104.4 32.7 104.1 32.4 103.9 31.9C103.8 31.5 103.7 31 103.7 30.6C103.7 28.7 103.7 26.8 103.7 24.9C103.7 23.8 103.6 22.6 103.3 21.5C102.8 19.9 101.9 18.6 100.5 17.6C99.1999 16.6 97.6999 16.2 96.0999 16C93.1999 15.7 90.4999 16.1 87.9999 17.7C86.7999 18.5 85.7999 19.5 85.0999 20.9C84.6999 21.7 84.4999 22.5 84.1999 23.4C83.9999 23.9 84.0999 24 84.6999 24C85.8999 24 87.1999 24 88.3999 24C88.7999 24 88.9999 23.9 89.0999 23.5C89.5999 22.3 90.4999 21.5 91.6999 21.2C92.8999 21 94.0999 20.9 95.2999 21C96.1999 21 97.0999 21.3 97.9999 21.6C98.6999 21.8 99.2999 23.1 99.1999 23.8C99.0999 24.6 98.5999 25 97.5999 25C95.8999 25.1 94.1999 25 92.4999 25.1C91.3999 25.1 90.1999 25.2 89.0999 25.5C87.1999 26 85.5999 27.1 84.5999 28.8C83.7999 30.2 83.6999 31.8 84.1999 33.3C84.9999 35.8 86.8999 37.3 89.3999 38C91.0999 38.7 92.8999 38.6 94.6999 38.1ZM88.4999 30.3C88.8999 29.6 89.4999 29.3 90.1999 29.2C90.7999 29.1 91.3999 29.1 91.9999 29.1C93.4999 29.1 95.0999 29.1 96.5999 29.1C97.1999 29.1 97.7999 29 98.2999 28.8C98.7999 28.7 98.9999 28.8 98.9999 29.3C98.9999 30.9 97.9999 32 96.5999 32.6C95.1999 33.2 93.7999 33.3 92.3999 33.4C91.5999 33.3 90.7999 33.2 89.9999 33.1C88.8999 33 87.8999 31.5 88.4999 30.3Z" fill="white" fill-opacity="0.28"/>
<path d="M175.1 24.9C175.2 24.8 175.4 24.6 175.6 24.4C175.6 24.8 175.7 25.1 175.7 25.4C175.7 29.3 175.7 33.2 175.7 37.1C175.7 37.9 175.7 37.9 176.5 37.9C177.6 37.9 178.7 37.9 179.9 37.9C180.3 37.9 180.5 37.8 180.5 37.3C180.5 30.6 180.5 23.9 180.5 17.2C180.5 16.8 180.3 16.6 179.9 16.6C178.7 16.6 177.5 16.6 176.3 16.6C176 16.6 175.7 16.8 175.5 17C174.9 17.6 174.4 18.2 173.9 18.8C172.6 20.3 171.3 21.9 170 23.4C169.1 24.5 168.1 25.6 167.2 26.7C166.3 27.7 165.5 28.7 164.7 29.7C164.6 29.8 164.4 29.9 164.1 30C164.1 29.6 164.1 29.4 164.1 29.2C164.1 25.3 164.1 21.4 164.1 17.4C164.1 16.7 164.1 16.6 163.3 16.6C162.2 16.6 161.1 16.6 160 16.6C159.4 16.6 159.3 16.7 159.3 17.3C159.3 23.9 159.3 30.5 159.3 37.1C159.3 37.6 159.5 37.8 160 37.8C161.2 37.8 162.5 37.8 163.7 37.8C163.9 37.8 164.3 37.7 164.4 37.5C165.2 36.6 165.9 35.7 166.7 34.8C168 33.2 169.3 31.7 170.6 30.1C172.1 28.3 173.6 26.6 175.1 24.9Z" fill="white" fill-opacity="0.28"/>
<path d="M235.7 16.6C235.6 16.6 235.3 16.7 235.3 16.8C234.6 18.2 234 19.6 233.3 21C232.7 22.3 232.2 23.5 231.6 24.8C231.1 25.8 230.6 26.9 230.1 27.9C229.8 28.6 229.5 29.2 229.1 30C228.9 29.7 228.7 29.5 228.6 29.2C228.1 28.2 227.7 27.1 227.2 26C226.6 24.8 226 23.5 225.5 22.3C224.7 20.5 223.9 18.7 223 16.9C222.9 16.7 222.6 16.5 222.5 16.5C220.9 16.5 219.3 16.5 217.7 16.5C217.4 16.5 217.3 16.7 217.4 17C217.8 17.8 218.2 18.7 218.6 19.5C219.5 21.3 220.3 23.1 221.2 24.9C221.9 26.4 222.6 27.9 223.3 29.3C224.3 31.3 225.3 33.3 226.2 35.3C226.3 35.6 226.3 36 226.2 36.3C225.8 37.1 225.3 37.9 224.8 38.6C224.3 39.3 223.6 39.9 222.6 40C221.6 40.1 220.6 40.1 219.5 40.2C219.1 40.2 218.9 40.3 218.9 40.7C218.9 42.3 218.9 43.8 218.9 45.4C218.9 45.7 219 45.9 219.4 45.9C220.7 45.9 222 45.9 223.3 45.6C224.9 45.2 226.4 44.5 227.5 43.3C229.3 41.5 230.2 39.1 231.4 36.8C232.1 35.3 232.8 33.9 233.5 32.4C234.2 30.9 235 29.3 235.7 27.8C236.2 26.8 236.7 25.8 237.1 24.8C237.5 23.9 238 23 238.4 22C238.9 21 239.3 20 239.8 19C240.2 18.2 240.6 17.4 240.9 16.6C240.7 16.5 240.6 16.5 240.4 16.5C238.9 16.6 237.3 16.6 235.7 16.6Z" fill="white" fill-opacity="0.28"/>
<path d="M125.7 30.7C125.7 32.8 125.7 34.9999 125.7 37.0999C125.7 37.6999 125.8 37.9 126.4 37.9C127.5 37.9 128.6 37.9 129.7 37.9C130.3 37.9 130.4 37.8 130.4 37.2C130.4 30.6 130.4 23.9999 130.4 17.4C130.4 16.8 130.3 16.7 129.7 16.7C128.6 16.7 127.5 16.7 126.4 16.7C125.7 16.7 125.7 16.8 125.7 17.5C125.7 19.6 125.7 21.8 125.7 23.9C125.7 24.4 125.6 24.6 125.1 24.6C121.8 24.6 118.6 24.6 115.3 24.6C114.8 24.6 114.6 24.4 114.6 23.9C114.6 21.6999 114.6 19.6 114.6 17.4C114.6 16.9 114.5 16.7 114 16.7C112.9 16.7 111.7 16.7 110.6 16.7C110 16.7 109.9 16.8 109.9 17.4C109.9 20.6999 109.9 23.9999 109.9 27.2999C109.9 30.5999 109.9 33.9 109.9 37.2C109.9 37.9 110 38 110.6 38C111.7 38 112.8 38 113.9 38C114.5 38 114.6 37.8999 114.6 37.2999C114.6 35.1999 114.6 33 114.6 30.9C114.6 30 114.7 29.9 115.6 29.9C118.6 29.9 121.6 29.9 124.6 29.9C125.6 29.7 125.7 29.8 125.7 30.7Z" fill="white" fill-opacity="0.28"/>
<path d="M152.3 31.2999C151.4 29.9999 150.5 28.6999 149.6 27.4C149.5 27.3 149.5 27 149.6 26.9C150.7 25.3 151.8 23.7 153 22.1C153.9 20.9 154.7 19.7 155.6 18.5C156 18 156.3 17.3999 156.8 16.7999C156.5 16.6999 156.4 16.7 156.3 16.7C154.7 16.7 153.2 16.7 151.6 16.7C151.4 16.7 151.2 16.8 151.1 17C149.5 19.2 147.9 21.4 146.3 23.6C145.8 24.3 145.3 24.6 144.4 24.6C143.3 24.5 142.1 24.6 140.9 24.6C140.3 24.6 140.2 24.5 140.2 23.9C140.2 21.8 140.2 19.6 140.2 17.5C140.2 16.9 140.1 16.7999 139.5 16.7999C138.4 16.7999 137.3 16.7999 136.2 16.7999C135.6 16.7999 135.5 16.9 135.5 17.5C135.5 24.1 135.5 30.6999 135.5 37.2999C135.5 37.8999 135.6 38 136.2 38C137.2 38 138.2 38 139.3 38C140.2 38 140.2 37.9999 140.2 37.0999C140.2 34.9999 140.2 32.8 140.2 30.7C140.2 30.1 140.4 29.9 140.9 29.9C142.3 29.9 143.7 29.9 145.1 29.9C145.4 29.9 145.7 30.0999 145.9 30.2999C147.6 32.6999 149.3 35.1 150.9 37.5C151.1 37.8 151.4 37.9 151.8 37.9C153.2 37.9 154.7 37.9 156.1 37.9C156.3 37.9 156.5 37.7999 156.8 37.7999C156.5 37.3999 156.3 37.0999 156.1 36.7999C154.8 34.8999 153.6 33.0999 152.3 31.2999Z" fill="white" fill-opacity="0.28"/>
<path d="M183.9 35.2C184 36.8 185.3 38.1 186.9 38.2C187.6 38.2 188.3 38.2 189 38.2C190.3 38.2 191.6 36.8999 191.7 35.5999C191.8 34.7999 191.8 34 191.8 33.2C191.8 31.7 190.4 30.2 188.7 30.2C188.1 30.2 187.6 30.2 187 30.2C186.3 30.2 185.6 30.4 185.1 30.9C184.1 31.8 183.9 32.9 184 34.2C183.9 34.6 183.9 34.9 183.9 35.2Z" fill="white" fill-opacity="0.28"/>
</svg>
