<svg width="70" height="21" viewBox="0 0 70 21" fill="none" xmlns="http://www.w3.org/2000/svg">
<path d="M10.3997 9.32728L8.02132 8.34793C6.38907 7.69504 5.12991 7.27532 5.12991 6.10943C5.12991 5.03681 6.06262 4.43055 7.50833 4.43055C9.00066 4.43055 10.1666 4.94354 11.4257 5.92288L13.5709 3.21802C11.9387 1.58578 9.7002 0.746338 7.50833 0.746338C3.59094 0.746338 0.792805 3.21802 0.792805 6.34261C0.792805 9.0941 2.65823 10.6797 4.57029 11.4725L6.99534 12.4985C8.62758 13.1514 9.7002 13.5711 9.7002 14.737C9.7002 15.8563 8.81412 16.5558 7.04197 16.5558C5.503 16.5558 3.77748 15.763 2.42505 14.5971L0 17.5351C1.91206 19.3073 4.52365 20.24 6.99534 20.24C11.4724 20.24 14.0839 17.5351 14.0839 14.4106C14.1306 11.799 12.6849 10.26 10.3997 9.32728Z" fill="white"/>
<path d="M48.8276 6.99522C48.8276 2.51821 45.5631 1.11914 41.5524 1.11914H34.7903V19.9599H39.0341V13.1978H41.3659L44.9568 19.9599H49.7137L45.4698 12.4516C47.4752 11.5189 48.8276 9.74672 48.8276 6.99522ZM39.0341 4.52354H41.226C43.4645 4.52354 44.677 5.1298 44.677 6.99522C44.677 8.86065 43.4645 9.79336 41.226 9.79336H39.0341V4.52354Z" fill="white"/>
<path d="M65.4295 1.11914L62.4915 9.46691C62.1184 10.5862 61.7919 11.7987 61.4189 12.9646H61.3256C60.9525 11.7987 60.6261 10.5862 60.253 9.46691L57.175 1.11914H52.5115V19.9599H56.3356V13.0578C56.3356 11.2391 56.0091 8.48756 55.776 6.66877H55.8692L57.3616 11.1458L60.0198 18.3743H62.3982L65.0564 11.1458L66.5954 6.66877H66.6887C66.5021 8.48756 66.1291 11.2391 66.1291 13.0578V19.9599H69.9998V1.11914H65.4295Z" fill="white"/>
<path d="M16.9287 16.3223V20.2863L23.7841 17.6281L30.5929 20.2863V16.3223L23.7841 13.804L16.9287 16.3223Z" fill="white"/>
<path d="M16.9287 9.42042V13.3844L23.7841 10.6796L30.5929 13.3844V9.42042L23.7841 6.9021L16.9287 9.42042Z" fill="white"/>
<path d="M16.9287 2.47169V6.43571L23.7841 3.77748L30.5929 6.43571V2.47169L23.7841 0L16.9287 2.47169Z" fill="white"/>
</svg>
